<?xml version="1.0" encoding="utf-8"?>
<!-- Generator: Adobe Illustrator 16.0.0, SVG Export Plug-In . SVG Version: 6.00 Build 0)  -->
<!DOCTYPE svg PUBLIC "-//W3C//DTD SVG 1.1//EN" "http://www.w3.org/Graphics/SVG/1.1/DTD/svg11.dtd">
<svg version="1.1" id="Layer_1" xmlns="http://www.w3.org/2000/svg" xmlns:xlink="http://www.w3.org/1999/xlink" x="0px" y="0px"
	 width="611.951px" height="608.236px" viewBox="0 90 611.951 608.236" enable-background="new 0 90 611.951 608.236"
	 xml:space="preserve">
<title>Facebook icon</title>
<path fill="#FFFFFF" d="M611.951,395.977C611.951,226.99,474.963,90,305.977,90C136.99,90,0,226.99,0,395.977
	c0,152.722,111.891,279.304,258.167,302.259V484.424h-77.688v-88.447h77.688v-67.411c0-76.685,45.681-119.044,115.571-119.044
	c33.477,0,68.493,5.976,68.493,5.976v75.299h-38.582c-38.01,0-49.865,23.586-49.865,47.783v57.397h84.861l-13.565,88.447h-71.296
	v213.813C500.063,675.281,611.951,548.699,611.951,395.977z"/>
</svg>
