<?xml version="1.0" encoding="utf-8"?>
<!-- Generator: Adobe Illustrator 16.0.0, SVG Export Plug-In . SVG Version: 6.00 Build 0)  -->
<!DOCTYPE svg PUBLIC "-//W3C//DTD SVG 1.1//EN" "http://www.w3.org/Graphics/SVG/1.1/DTD/svg11.dtd">
<svg version="1.1" id="Layer_1" xmlns="http://www.w3.org/2000/svg" xmlns:xlink="http://www.w3.org/1999/xlink" x="0px" y="0px"
	 width="1500px" height="600px" viewBox="0 0 1500 600" enable-background="new 0 0 1500 600" xml:space="preserve">
<g>
	<path fill="#FFFFFF" d="M838.641,70.548c-0.025,0.004-0.072,0.012-0.11,0.155c-0.121,0.452,0.117,1.301,0.571,1.857
		c0.146-0.222,0.278-0.453,0.385-0.687c0.299-0.653,0.275-1.054,0.165-1.199c-0.084-0.11-0.283-0.167-0.562-0.167
		C838.957,70.508,838.806,70.521,838.641,70.548z"/>
	<path fill="#FFFFFF" d="M836.343,66.12l-0.28,0.137c-0.032,0.016-3.259,1.623-3.677,4.053c-0.181,1.05,0.324,1.846,0.973,2.189
		c-0.044-0.59,0.027-1.262,0.215-2.013c0.296-1.181,0.713-1.825,1.274-1.969c0.334-0.085,0.669,0.026,0.927,0.304
		c0.588,0.634,0.711,2.056,0.287,3.307c-0.266,0.783-0.768,1.236-1.328,1.433c0.019,0.025,0.037,0.049,0.058,0.073
		c0.528,0.638,1.443,0.721,2.125,0.681c0.442-0.027,1.026-0.41,1.552-0.959c-0.721-0.772-1.135-2.045-0.903-2.908
		c0.13-0.488,0.464-0.811,0.916-0.884c0.933-0.151,1.593,0.019,1.966,0.508c0.39,0.51,0.371,1.299-0.051,2.221
		c-0.119,0.261-0.269,0.528-0.441,0.79c0.17,0.015,0.332-0.029,0.507-0.117c0.864-0.432,1.398-1.072,1.504-1.802
		c0.115-0.795-0.279-1.662-1.112-2.44c-1.913-1.789-2.81-2.518-2.818-2.525l-0.184-0.149l-0.082-10.688
		c-0.269-0.044-0.539-0.083-0.819-0.083c-0.208,0-0.405,0.037-0.606,0.061V66.12z"/>
	<path fill="#FFFFFF" d="M841.98,64.234v-3.939h-0.013c0-2.127-1.329-3.935-3.197-4.665l0.076,9.941
		c0.353,0.297,1.221,1.046,2.689,2.419c1.078,1.008,1.582,2.185,1.419,3.314c-0.154,1.063-0.881,1.97-2.047,2.553
		c-0.544,0.271-1.105,0.297-1.624,0.081c-0.689,0.751-1.533,1.326-2.308,1.373c-0.118,0.007-0.234,0.011-0.349,0.011
		c-1.136,0-2.032-0.36-2.606-1.05c-0.157-0.189-0.287-0.399-0.39-0.629c-0.054-0.01-0.107-0.021-0.16-0.035
		c-1.239-0.315-2.387-1.637-2.072-3.468c0.43-2.493,3.063-4.145,3.943-4.633v-9.943c-1.979,0.673-3.412,2.526-3.412,4.732v3.929
		c-1.926,1.499-3.17,3.832-3.17,6.461c0,4.522,3.666,8.188,8.188,8.188s8.188-3.666,8.188-8.188
		C845.138,68.062,843.899,65.733,841.98,64.234z"/>
	<path fill="#FFFFFF" d="M835.031,69.489c-0.001,0.05-0.251,0.293-0.487,1.24c-0.185,0.737-0.238,1.377-0.163,1.901
		c0.277-0.089,0.561-0.315,0.733-0.824C835.521,70.605,835.223,69.646,835.031,69.489z"/>
</g>
<polygon fill="#FFFFFF" points="806.11,53.108 807.279,58.785 552.667,8.333 "/>
<polygon fill="#FFFFFF" points="806.945,62.29 806.945,67.799 507.667,100.833 "/>
<polygon fill="#FFFFFF" points="811.619,76.48 813.289,81.989 582.667,198.333 "/>
<polygon fill="#FFFFFF" points="809.616,73.976 648.5,116.667 807.446,70.971 "/>
<polygon fill="#FFFFFF" points="815.292,87.832 817.796,88.333 726,222.5 "/>
<polygon fill="#FFFFFF" points="862.537,52.272 862.704,57.782 1161.833,13.333 "/>
<polygon fill="#FFFFFF" points="862.037,61.455 862.037,68.132 1159.333,80.833 "/>
<polygon fill="#FFFFFF" points="861.369,72.306 1078.5,123.333 862.538,77.982 "/>
<polygon fill="#FFFFFF" points="859.7,84.493 935.167,220 858.531,87.665 "/>
<polygon fill="#FFFFFF" points="862.037,80.319 959.333,133.333 861.202,82.823 "/>
</svg>
