<?xml version="1.0" encoding="utf-8"?>
<!-- Generator: Adobe Illustrator 16.0.0, SVG Export Plug-In . SVG Version: 6.00 Build 0)  -->
<!DOCTYPE svg PUBLIC "-//W3C//DTD SVG 1.1//EN" "http://www.w3.org/Graphics/SVG/1.1/DTD/svg11.dtd">
<svg version="1.1" id="Layer_1" xmlns="http://www.w3.org/2000/svg" xmlns:xlink="http://www.w3.org/1999/xlink" x="0px" y="0px"
	 width="1500px" height="600px" viewBox="0 0 1500 600" enable-background="new 0 0 1500 600" xml:space="preserve">
<path opacity="0.9" fill="#B63700" d="M320.82,600.001v-19.504l81.379-32.844l21.767,4.412l5-1.177l-1.375-455.727
	c0,0-0.098-4.314-2.353-5.491S324.052,33.98,324.052,33.98s-0.196,23.139,0.098,30.297s-0.588,45.495-0.392,51.77
	s-0.392,8.432-0.196,12.746s0.688,21.571-0.293,24.806s-1.275,8.235-0.883,11.569s0.98,22.942,0.588,29.904
	s-0.49,12.942-0.098,16.178s0.686,20.588,0.392,24.903s-0.392,15.394-0.392,19.512s-0.588,9.313-0.882,15s-0.294,49.71-0.49,55.594
	s-0.392,30.2-0.98,33.436s-0.784,13.923-0.392,17.648s0.196,38.334,0.196,41.275s0.098,28.041,0.294,31.865
	s-1.765,10.002-0.882,14.021s-0.392,9.903-0.392,12.942s1.569,7.451,0.98,10.099s-2.059,2.352-2.059,14.607s0,97.049,0,97.049
	L320.82,600.001z"/>
</svg>
