<?xml version="1.0" encoding="utf-8"?>
<!-- Generator: Adobe Illustrator 16.0.0, SVG Export Plug-In . SVG Version: 6.00 Build 0)  -->
<!DOCTYPE svg PUBLIC "-//W3C//DTD SVG 1.1//EN" "http://www.w3.org/Graphics/SVG/1.1/DTD/svg11.dtd">
<svg version="1.1" id="Layer_1" xmlns="http://www.w3.org/2000/svg" xmlns:xlink="http://www.w3.org/1999/xlink" x="0px" y="0px"
	 width="291.295px" height="261.778px" viewBox="0 0 291.295 261.778" enable-background="new 0 0 291.295 261.778"
	 xml:space="preserve">
<g>
	<g>
		<g>
			<path d="M19.525,221.107c0-1.257-0.445-2.236-1.335-2.939c-0.89-0.701-2.454-1.429-4.691-2.18
				c-2.238-0.752-4.067-1.479-5.488-2.181c-4.622-2.271-6.933-5.39-6.933-9.358c0-1.977,0.576-3.72,1.727-5.23
				c1.151-1.51,2.78-2.687,4.887-3.527c2.107-0.842,4.475-1.262,7.104-1.262c2.564,0,4.863,0.457,6.896,1.371
				c2.033,0.916,3.613,2.218,4.74,3.908c1.127,1.689,1.69,3.621,1.69,5.793H19.55c0-1.453-0.445-2.58-1.335-3.38
				s-2.094-1.2-3.613-1.2c-1.536,0-2.748,0.339-3.638,1.016c-0.89,0.679-1.335,1.54-1.335,2.585c0,0.915,0.49,1.743,1.47,2.487
				c0.98,0.742,2.703,1.51,5.169,2.303c2.466,0.792,4.491,1.645,6.075,2.56c3.854,2.222,5.782,5.284,5.782,9.187
				c0,3.12-1.176,5.57-3.528,7.35c-2.352,1.781-5.578,2.67-9.677,2.67c-2.891,0-5.508-0.518-7.852-1.555
				c-2.344-1.037-4.108-2.458-5.292-4.264C0.592,223.456,0,221.376,0,219.025h8.624c0,1.911,0.494,3.32,1.482,4.227
				s2.593,1.359,4.814,1.359c1.421,0,2.543-0.307,3.369-0.919C19.112,223.08,19.525,222.218,19.525,221.107z"/>
			<path d="M46.713,230.588h-8.574v-35.669h8.574V230.588z"/>
			<path d="M57.708,230.588v-35.669h11.49c3.152,0,5.985,0.714,8.501,2.143c2.515,1.43,4.479,3.447,5.892,6.052
				s2.127,5.524,2.144,8.758v1.642c0,3.267-0.69,6.194-2.07,8.783c-1.38,2.588-3.324,4.613-5.831,6.074
				c-2.507,1.463-5.304,2.201-8.391,2.218H57.708z M66.307,201.558v22.416h2.989c2.466,0,4.36-0.878,5.684-2.634
				c1.323-1.755,1.984-4.364,1.984-7.827v-1.543c0-3.446-0.662-6.043-1.984-7.791c-1.323-1.748-3.25-2.621-5.782-2.621H66.307z"/>
			<path d="M117.283,215.449H103.76v8.525h15.973v6.614H95.161v-35.669h24.621v6.639H103.76v7.521h13.523V215.449z"/>
			<path d="M145.765,230.588v-35.669h11.49c3.151,0,5.984,0.714,8.5,2.143c2.516,1.43,4.479,3.447,5.893,6.052
				c1.412,2.604,2.127,5.524,2.143,8.758v1.642c0,3.267-0.689,6.194-2.069,8.783c-1.38,2.588-3.323,4.613-5.831,6.074
				c-2.507,1.463-5.304,2.201-8.391,2.218H145.765z M154.364,201.558v22.416h2.988c2.466,0,4.36-0.878,5.684-2.634
				c1.322-1.755,1.984-4.364,1.984-7.827v-1.543c0-3.446-0.662-6.043-1.984-7.791c-1.323-1.748-3.25-2.621-5.781-2.621H154.364z"/>
			<path d="M213.425,213.489c0,3.479-0.646,6.558-1.936,9.235c-1.291,2.68-3.124,4.74-5.5,6.186
				c-2.377,1.445-5.084,2.168-8.121,2.168c-3.038,0-5.732-0.697-8.085-2.094c-2.352-1.396-4.185-3.393-5.5-5.99
				c-1.314-2.597-2.005-5.577-2.069-8.941v-2.01c0-3.494,0.641-6.577,1.922-9.248c1.283-2.67,3.12-4.731,5.513-6.186
				c2.393-1.453,5.116-2.18,8.171-2.18c3.021,0,5.715,0.719,8.084,2.156c2.367,1.437,4.209,3.482,5.524,6.137
				c1.314,2.654,1.979,5.695,1.997,9.125V213.489z M204.679,211.994c0-3.543-0.593-6.234-1.776-8.072
				c-1.185-1.837-2.879-2.756-5.083-2.756c-4.313,0-6.591,3.234-6.836,9.701l-0.024,2.622c0,3.495,0.579,6.182,1.739,8.06
				c1.16,1.879,2.883,2.817,5.17,2.817c2.172,0,3.846-0.923,5.021-2.769s1.771-4.499,1.789-7.961V211.994z"/>
			<path d="M253.082,213.489c0,3.479-0.646,6.558-1.936,9.235c-1.29,2.68-3.123,4.74-5.5,6.186
				c-2.376,1.445-5.083,2.168-8.121,2.168s-5.732-0.697-8.084-2.094c-2.353-1.396-4.186-3.393-5.5-5.99
				c-1.315-2.597-2.005-5.577-2.07-8.941v-2.01c0-3.494,0.641-6.577,1.923-9.248c1.282-2.67,3.119-4.731,5.513-6.186
				c2.392-1.453,5.115-2.18,8.17-2.18c3.021,0,5.716,0.719,8.084,2.156c2.368,1.437,4.21,3.482,5.524,6.137s1.98,5.695,1.997,9.125
				V213.489z M244.336,211.994c0-3.543-0.592-6.234-1.776-8.072c-1.184-1.837-2.878-2.756-5.083-2.756
				c-4.312,0-6.59,3.234-6.835,9.701l-0.024,2.622c0,3.495,0.579,6.182,1.739,8.06c1.159,1.879,2.882,2.817,5.169,2.817
				c2.172,0,3.847-0.923,5.022-2.769s1.771-4.499,1.788-7.961V211.994z"/>
			<path d="M275.787,217.972h-4.654v12.616h-8.6v-35.669h14.038c4.229,0,7.537,0.938,9.922,2.813
				c2.384,1.876,3.576,4.528,3.576,7.954c0,2.479-0.502,4.535-1.506,6.166c-1.005,1.633-2.577,2.953-4.716,3.965l7.447,14.402v0.368
				h-9.212L275.787,217.972z M271.133,211.357h5.438c1.633,0,2.862-0.43,3.687-1.289c0.825-0.859,1.237-2.059,1.237-3.598
				s-0.416-2.747-1.249-3.623c-0.833-0.875-2.058-1.314-3.675-1.314h-5.438V211.357z"/>
		</g>
		<g>
			<path d="M84.088,261.778V242.19h6.404c2.125,0,3.724,0.439,4.796,1.318s1.608,2.18,1.608,3.901c0,0.915-0.26,1.725-0.78,2.428
				c-0.52,0.705-1.229,1.25-2.125,1.635c1.058,0.296,1.895,0.859,2.509,1.688c0.614,0.83,0.921,1.819,0.921,2.967
				c0,1.758-0.569,3.14-1.708,4.144c-1.139,1.005-2.749,1.507-4.83,1.507H84.088z M86.671,250.544h3.901
				c1.13,0,2.034-0.283,2.711-0.85s1.016-1.334,1.016-2.306c0-1.079-0.314-1.862-0.942-2.353c-0.628-0.489-1.583-0.735-2.866-0.735
				h-3.821V250.544z M86.671,252.616v7.05h4.265c1.202,0,2.15-0.312,2.845-0.935c0.695-0.624,1.043-1.482,1.043-2.577
				c0-2.358-1.283-3.538-3.848-3.538H86.671z"/>
			<path d="M117.568,256.652h-8.207l-1.843,5.126h-2.664l7.48-19.588h2.26l7.494,19.588h-2.65L117.568,256.652z M110.142,254.54
				h6.66l-3.337-9.161L110.142,254.54z"/>
			<path d="M137.42,253.854h-4.601v7.924h-2.597V242.19h6.484c2.207,0,3.904,0.502,5.092,1.506c1.188,1.005,1.783,2.468,1.783,4.387
				c0,1.22-0.33,2.282-0.989,3.188c-0.659,0.907-1.577,1.583-2.751,2.032l4.601,8.313v0.162h-2.771L137.42,253.854z
				 M132.819,251.742h3.969c1.282,0,2.303-0.333,3.061-0.997c0.758-0.665,1.137-1.555,1.137-2.669c0-1.213-0.361-2.143-1.083-2.79
				s-1.765-0.975-3.128-0.984h-3.955V251.742z"/>
			<path d="M152.711,261.778V242.19h6.404c2.126,0,3.725,0.439,4.796,1.318c1.072,0.879,1.608,2.18,1.608,3.901
				c0,0.915-0.261,1.725-0.78,2.428c-0.521,0.705-1.229,1.25-2.126,1.635c1.058,0.296,1.895,0.859,2.509,1.688
				c0.614,0.83,0.922,1.819,0.922,2.967c0,1.758-0.569,3.14-1.709,4.144c-1.139,1.005-2.749,1.507-4.829,1.507H152.711z
				 M155.295,250.544h3.9c1.131,0,2.034-0.283,2.712-0.85c0.677-0.566,1.016-1.334,1.016-2.306c0-1.079-0.314-1.862-0.942-2.353
				c-0.628-0.489-1.583-0.735-2.865-0.735h-3.82V250.544z M155.295,252.616v7.05h4.265c1.201,0,2.149-0.312,2.846-0.935
				c0.694-0.624,1.043-1.482,1.043-2.577c0-2.358-1.283-3.538-3.848-3.538H155.295z"/>
			<path d="M186.447,252.724h-8.489v6.941h9.861v2.112h-12.444V242.19h12.31v2.111h-9.727v6.311h8.489V252.724z"/>
			<path d="M203.729,253.854h-4.602v7.924h-2.596V242.19h6.484c2.206,0,3.903,0.502,5.092,1.506
				c1.188,1.005,1.783,2.468,1.783,4.387c0,1.22-0.33,2.282-0.989,3.188c-0.659,0.907-1.576,1.583-2.752,2.032l4.602,8.313v0.162
				h-2.771L203.729,253.854z M199.128,251.742h3.969c1.283,0,2.303-0.333,3.062-0.997c0.757-0.665,1.136-1.555,1.136-2.669
				c0-1.213-0.36-2.143-1.082-2.79c-0.723-0.647-1.765-0.975-3.128-0.984h-3.956V251.742z"/>
		</g>
	</g>
	<g>
		<g>
			<path d="M77.453,92.233c0-1.527-0.541-2.717-1.622-3.57c-1.081-0.853-2.98-1.736-5.698-2.648
				c-2.718-0.912-4.939-1.795-6.665-2.648c-5.614-2.757-8.42-6.546-8.42-11.366c0-2.4,0.699-4.518,2.098-6.353
				c1.398-1.834,3.376-3.263,5.936-4.285s5.435-1.533,8.629-1.533c3.114,0,5.906,0.556,8.376,1.667
				c2.469,1.111,4.388,2.693,5.757,4.746c1.369,2.053,2.053,4.398,2.053,7.037H77.482c0-1.765-0.541-3.134-1.622-4.106
				c-1.081-0.972-2.543-1.458-4.389-1.458c-1.865,0-3.337,0.412-4.418,1.235c-1.081,0.824-1.622,1.87-1.622,3.139
				c0,1.111,0.595,2.118,1.785,3.021c1.19,0.902,3.283,1.835,6.279,2.797c2.995,0.962,5.455,1.999,7.378,3.109
				c4.682,2.698,7.022,6.417,7.022,11.158c0,3.789-1.428,6.764-4.285,8.927c-2.856,2.162-6.774,3.243-11.753,3.243
				c-3.511,0-6.69-0.629-9.536-1.89c-2.846-1.259-4.989-2.985-6.427-5.177c-1.438-2.191-2.157-4.716-2.157-7.572h10.474
				c0,2.32,0.6,4.031,1.8,5.132s3.149,1.651,5.847,1.651c1.726,0,3.089-0.372,4.092-1.116
				C76.951,94.628,77.453,93.582,77.453,92.233z"/>
		</g>
		<g>
			<path d="M205.144,103.748V60.426h13.954c3.828,0,7.271,0.868,10.326,2.604c3.053,1.736,5.439,4.186,7.154,7.349
				c1.716,3.164,2.584,6.709,2.604,10.637v1.994c0,3.967-0.839,7.523-2.515,10.667c-1.677,3.144-4.037,5.604-7.081,7.378
				c-3.046,1.776-6.442,2.673-10.19,2.693H205.144z M215.587,68.489v27.225h3.631c2.994,0,5.295-1.066,6.902-3.198
				c1.607-2.132,2.41-5.301,2.41-9.506v-1.875c0-4.185-0.803-7.339-2.41-9.462c-1.607-2.123-3.948-3.184-7.022-3.184H215.587z"/>
		</g>
		<g>
			<g>
				<path d="M244.53,126.599c-12.736-10.562-19.921-4.134-31.024-4.134s-29.065-13.063-43.761-26.779
					c-1.962-1.831-5.102-4.887-9.056-8.794l-12.187,14.533l5.566,7.65c39.842,1.306,50.292,17.635,52.252,28.739
					s8.817,27.105,28.085,24.493S257.267,137.161,244.53,126.599z M231.141,159.042c-21.228,2.612-20.574-22.534-17.309-28.412
					c4.711-8.479,20.709-9.855,29.392,0S252.368,156.429,231.141,159.042z"/>
				<path d="M74.712,0l58.998,81.092c3.327-3.051,7.068-6.437,11.094-10.047C116.011,42.138,74.712,0,74.712,0z"/>
			</g>
			<g>
				<path d="M146.908,80.453c-2.479,0-4.494,2.016-4.494,4.493c0,2.478,2.015,4.494,4.494,4.494c2.478,0,4.493-2.016,4.493-4.494
					C151.401,82.469,149.386,80.453,146.908,80.453z"/>
				<path d="M123.085,95.359c-15.309,16.002-27.146,11.43-27.146,11.43c-4.245,11.43-6.553,16.313-28.085,15.349
					s-26.453,16.655-27.105,23.187s-6.858,12.083-13.39,13.906s-10.124-1.823-6.858,3.359s16.982-0.283,22.534-1.59
					s15.675,6.531,25.473,2.939s13.063-11.757,15.022-22.452s1.307-17.39,16.982-28.82s38.209-4.245,38.209-4.245L226.896,3.266
					C226.896,3.266,138.394,79.357,123.085,95.359z M69.487,159.231c-10.45,7.647-22.088-2.222-25.146-9.66
					s10.45-33.311,30.371-19.595C85.216,137.208,79.937,151.583,69.487,159.231z M146.908,91.44c-3.581,0-6.494-2.913-6.494-6.494
					s2.913-6.493,6.494-6.493c3.58,0,6.493,2.913,6.493,6.493S150.488,91.44,146.908,91.44z"/>
			</g>
		</g>
	</g>
</g>
</svg>
