<?xml version="1.0" encoding="utf-8"?>
<!-- Generator: Adobe Illustrator 16.0.0, SVG Export Plug-In . SVG Version: 6.00 Build 0)  -->
<!DOCTYPE svg PUBLIC "-//W3C//DTD SVG 1.1//EN" "http://www.w3.org/Graphics/SVG/1.1/DTD/svg11.dtd">
<svg version="1.1" id="Layer_1" xmlns="http://www.w3.org/2000/svg" xmlns:xlink="http://www.w3.org/1999/xlink" x="0px" y="0px"
	 width="291.295px" height="261.777px" viewBox="0 0 291.295 261.777" enable-background="new 0 0 291.295 261.777"
	 xml:space="preserve">
<g>
	<g>
		<g>
			<path d="M19.525,221.107c0-1.257-0.445-2.235-1.335-2.938c-0.89-0.701-2.454-1.429-4.691-2.18
				c-2.238-0.753-4.067-1.479-5.488-2.182c-4.622-2.271-6.933-5.391-6.933-9.357c0-1.978,0.576-3.721,1.727-5.23
				c1.151-1.51,2.78-2.687,4.887-3.526c2.107-0.842,4.475-1.262,7.104-1.262c2.564,0,4.863,0.457,6.896,1.37
				c2.033,0.916,3.613,2.219,4.74,3.908c1.127,1.688,1.69,3.621,1.69,5.793H19.55c0-1.453-0.445-2.58-1.335-3.38
				c-0.89-0.8-2.094-1.2-3.613-1.2c-1.536,0-2.748,0.34-3.638,1.017c-0.89,0.68-1.335,1.54-1.335,2.585
				c0,0.915,0.49,1.743,1.47,2.487c0.98,0.741,2.703,1.51,5.169,2.303c2.466,0.792,4.491,1.646,6.075,2.561
				c3.854,2.223,5.782,5.284,5.782,9.188c0,3.12-1.176,5.569-3.528,7.351s-5.578,2.67-9.677,2.67c-2.891,0-5.508-0.519-7.852-1.556
				c-2.344-1.036-4.108-2.458-5.292-4.264C0.592,223.456,0,221.376,0,219.025h8.624c0,1.911,0.494,3.319,1.482,4.228
				c0.988,0.907,2.593,1.358,4.814,1.358c1.421,0,2.543-0.308,3.369-0.919C19.112,223.08,19.525,222.218,19.525,221.107z"/>
			<path d="M46.713,230.588h-8.574v-35.669h8.574V230.588z"/>
			<path d="M57.708,230.588v-35.669h11.49c3.152,0,5.985,0.714,8.501,2.144c2.515,1.431,4.479,3.446,5.892,6.053
				c1.413,2.604,2.127,5.523,2.144,8.758v1.643c0,3.268-0.69,6.193-2.07,8.782c-1.38,2.588-3.324,4.613-5.831,6.074
				c-2.507,1.463-5.304,2.201-8.391,2.218L57.708,230.588L57.708,230.588z M66.307,201.558v22.416h2.989
				c2.466,0,4.36-0.878,5.684-2.635c1.323-1.755,1.984-4.363,1.984-7.826v-1.544c0-3.445-0.662-6.043-1.984-7.79
				c-1.323-1.748-3.25-2.621-5.782-2.621H66.307z"/>
			<path d="M117.283,215.449H103.76v8.524h15.973v6.613H95.161v-35.669h24.621v6.64H103.76v7.521h13.523V215.449z"/>
			<path d="M145.765,230.588v-35.669h11.49c3.151,0,5.984,0.714,8.5,2.144c2.516,1.431,4.479,3.446,5.893,6.053
				c1.412,2.604,2.127,5.523,2.145,8.758v1.643c0,3.268-0.688,6.193-2.068,8.782c-1.381,2.588-3.322,4.613-5.83,6.074
				c-2.509,1.463-5.306,2.201-8.393,2.218L145.765,230.588L145.765,230.588z M154.364,201.558v22.416h2.988
				c2.465,0,4.358-0.878,5.684-2.635c1.322-1.755,1.984-4.363,1.984-7.826v-1.544c0-3.445-0.662-6.043-1.984-7.79
				c-1.323-1.748-3.25-2.621-5.781-2.621H154.364z"/>
			<path d="M213.425,213.49c0,3.479-0.646,6.558-1.936,9.234c-1.291,2.68-3.124,4.739-5.5,6.187
				c-2.377,1.444-5.084,2.168-8.121,2.168c-3.038,0-5.732-0.697-8.085-2.095c-2.353-1.396-4.185-3.394-5.5-5.989
				c-1.314-2.598-2.005-5.577-2.069-8.94v-2.011c0-3.494,0.641-6.577,1.922-9.248c1.283-2.67,3.12-4.73,5.514-6.187
				c2.394-1.452,5.115-2.18,8.17-2.18c3.021,0,5.717,0.719,8.084,2.155c2.367,1.438,4.209,3.481,5.525,6.138
				c1.313,2.653,1.979,5.694,1.996,9.125V213.49L213.425,213.49z M204.679,211.994c0-3.543-0.593-6.234-1.775-8.072
				c-1.186-1.837-2.879-2.756-5.084-2.756c-4.313,0-6.59,3.233-6.836,9.701l-0.022,2.622c0,3.494,0.579,6.182,1.739,8.06
				c1.158,1.879,2.883,2.817,5.17,2.817c2.172,0,3.846-0.924,5.021-2.77c1.176-1.847,1.771-4.499,1.789-7.962v-1.641H204.679z"/>
			<path d="M253.082,213.49c0,3.479-0.646,6.558-1.937,9.234c-1.289,2.68-3.123,4.739-5.5,6.187
				c-2.375,1.444-5.082,2.168-8.121,2.168c-3.037,0-5.731-0.697-8.084-2.095c-2.354-1.396-4.187-3.394-5.5-5.989
				c-1.314-2.598-2.004-5.577-2.069-8.94v-2.011c0-3.494,0.642-6.577,1.923-9.248c1.282-2.67,3.119-4.73,5.514-6.187
				c2.393-1.452,5.114-2.18,8.17-2.18c3.021,0,5.715,0.719,8.084,2.155c2.367,1.438,4.209,3.481,5.523,6.138
				c1.314,2.655,1.98,5.694,1.997,9.125V213.49L253.082,213.49z M244.336,211.994c0-3.543-0.592-6.234-1.776-8.072
				c-1.184-1.837-2.877-2.756-5.082-2.756c-4.313,0-6.59,3.233-6.836,9.701l-0.022,2.622c0,3.494,0.577,6.182,1.737,8.06
				c1.16,1.879,2.884,2.817,5.17,2.817c2.173,0,3.848-0.924,5.021-2.77c1.176-1.847,1.771-4.499,1.788-7.962V211.994
				L244.336,211.994z"/>
			<path d="M275.787,217.972h-4.654v12.615h-8.6v-35.669h14.038c4.229,0,7.537,0.938,9.922,2.813
				c2.384,1.876,3.576,4.527,3.576,7.954c0,2.479-0.502,4.535-1.506,6.166c-1.006,1.633-2.578,2.953-4.718,3.965l7.447,14.401v0.368
				h-9.212L275.787,217.972z M271.133,211.357h5.438c1.633,0,2.861-0.431,3.687-1.289s1.237-2.06,1.237-3.599
				c0-1.538-0.416-2.746-1.249-3.622c-0.833-0.875-2.058-1.313-3.675-1.313h-5.438V211.357L271.133,211.357z"/>
		</g>
		<g>
			<path d="M84.088,261.778V242.19h6.404c2.125,0,3.724,0.438,4.796,1.317c1.072,0.879,1.608,2.181,1.608,3.901
				c0,0.915-0.26,1.725-0.78,2.428c-0.52,0.705-1.229,1.25-2.125,1.636c1.058,0.296,1.895,0.858,2.509,1.688
				c0.614,0.83,0.921,1.818,0.921,2.967c0,1.758-0.569,3.141-1.708,4.145c-1.139,1.005-2.749,1.507-4.83,1.507H84.088
				L84.088,261.778z M86.671,250.544h3.901c1.13,0,2.034-0.283,2.711-0.851c0.677-0.566,1.016-1.334,1.016-2.306
				c0-1.079-0.314-1.862-0.942-2.354c-0.628-0.489-1.583-0.735-2.866-0.735H86.67L86.671,250.544L86.671,250.544z M86.671,252.616
				v7.05h4.265c1.202,0,2.15-0.313,2.845-0.936c0.695-0.624,1.043-1.481,1.043-2.577c0-2.357-1.283-3.537-3.848-3.537H86.671z"/>
			<path d="M117.568,256.652h-8.207l-1.843,5.126h-2.664l7.48-19.588h2.26l7.494,19.588h-2.65L117.568,256.652z M110.142,254.54
				h6.66l-3.337-9.161L110.142,254.54z"/>
			<path d="M137.42,253.854h-4.601v7.924h-2.597V242.19h6.484c2.207,0,3.904,0.502,5.092,1.506c1.188,1.006,1.783,2.469,1.783,4.388
				c0,1.221-0.33,2.282-0.989,3.188c-0.659,0.907-1.577,1.583-2.751,2.032l4.601,8.313v0.161h-2.771L137.42,253.854z
				 M132.819,251.742h3.969c1.282,0,2.303-0.333,3.061-0.997c0.758-0.665,1.137-1.556,1.137-2.669c0-1.213-0.361-2.144-1.083-2.79
				c-0.722-0.646-1.765-0.976-3.128-0.984h-3.955L132.819,251.742L132.819,251.742z"/>
			<path d="M152.711,261.778V242.19h6.404c2.126,0,3.725,0.438,4.796,1.317c1.072,0.879,1.607,2.181,1.607,3.901
				c0,0.915-0.262,1.725-0.779,2.428c-0.521,0.705-1.229,1.25-2.127,1.636c1.059,0.296,1.896,0.858,2.51,1.688
				c0.613,0.83,0.922,1.818,0.922,2.967c0,1.758-0.568,3.141-1.709,4.145c-1.139,1.005-2.749,1.507-4.829,1.507H152.711
				L152.711,261.778z M155.295,250.544h3.899c1.132,0,2.035-0.283,2.713-0.851c0.677-0.565,1.016-1.334,1.016-2.306
				c0-1.079-0.314-1.862-0.941-2.354c-0.629-0.489-1.584-0.735-2.864-0.735h-3.82L155.295,250.544L155.295,250.544z
				 M155.295,252.616v7.05h4.265c1.201,0,2.149-0.313,2.846-0.936c0.695-0.624,1.045-1.481,1.045-2.577
				c0-2.357-1.283-3.537-3.85-3.537H155.295z"/>
			<path d="M186.446,252.724h-8.488v6.94h9.861v2.111h-12.444V242.19h12.31v2.11h-9.727v6.312h8.488V252.724L186.446,252.724z"/>
			<path d="M203.729,253.854h-4.604v7.924h-2.596V242.19h6.482c2.207,0,3.903,0.502,5.092,1.506
				c1.188,1.006,1.783,2.469,1.783,4.388c0,1.221-0.33,2.282-0.988,3.188c-0.658,0.907-1.575,1.583-2.752,2.032l4.603,8.313v0.161
				h-2.771L203.729,253.854z M199.128,251.742h3.969c1.283,0,2.303-0.333,3.063-0.997c0.757-0.665,1.136-1.556,1.136-2.669
				c0-1.213-0.359-2.144-1.082-2.79s-1.765-0.976-3.128-0.984h-3.956L199.128,251.742L199.128,251.742z"/>
		</g>
	</g>
	<g>
		<path d="M77.453,92.233c0-1.526-0.541-2.717-1.622-3.569c-1.081-0.854-2.98-1.736-5.698-2.647
			c-2.718-0.912-4.939-1.795-6.665-2.647c-5.614-2.758-8.42-6.547-8.42-11.366c0-2.399,0.699-4.519,2.098-6.354
			c1.398-1.834,3.376-3.264,5.936-4.285s5.435-1.532,8.629-1.532c3.114,0,5.906,0.557,8.376,1.667
			c2.469,1.11,4.388,2.692,5.757,4.746c1.369,2.053,2.053,4.397,2.053,7.037H77.482c0-1.766-0.541-3.135-1.622-4.106
			c-1.081-0.971-2.543-1.458-4.389-1.458c-1.865,0-3.337,0.412-4.418,1.235c-1.081,0.823-1.622,1.869-1.622,3.139
			c0,1.111,0.595,2.118,1.785,3.021c1.19,0.902,3.283,1.835,6.279,2.798c2.995,0.962,5.455,1.999,7.378,3.108
			c4.682,2.697,7.022,6.417,7.022,11.157c0,3.789-1.428,6.765-4.285,8.928c-2.856,2.162-6.774,3.243-11.753,3.243
			c-3.511,0-6.69-0.63-9.536-1.891c-2.846-1.26-4.989-2.984-6.427-5.178c-1.438-2.19-2.157-4.716-2.157-7.571h10.474
			c0,2.319,0.6,4.03,1.8,5.132c1.2,1.102,3.149,1.651,5.847,1.651c1.726,0,3.089-0.372,4.092-1.116
			C76.951,94.628,77.453,93.582,77.453,92.233z"/>
	</g>
	<g>
		<path d="M205.144,103.748V60.426h13.955c3.827,0,7.271,0.868,10.325,2.604c3.054,1.735,5.438,4.186,7.154,7.349
			c1.716,3.164,2.584,6.709,2.604,10.638v1.993c0,3.968-0.841,7.523-2.517,10.667c-1.677,3.145-4.037,5.604-7.081,7.379
			c-3.046,1.775-6.441,2.673-10.189,2.692H205.144z M215.587,68.49v27.225h3.631c2.994,0,5.295-1.065,6.902-3.197
			c1.607-2.133,2.41-5.302,2.41-9.507v-1.875c0-4.185-0.803-7.339-2.41-9.462s-3.948-3.184-7.021-3.184H215.587z"/>
	</g>
	<g>
		<g>
			<path d="M234.403,4.584c-19.268-2.611-26.125,13.39-28.086,24.493c-1.959,11.104-12.408,27.433-52.252,28.738l-5.564,7.65
				l12.188,14.532c3.955-3.906,7.095-6.963,9.057-8.794c14.695-13.716,32.658-26.778,43.761-26.778s18.288,6.428,31.024-4.135
				C257.267,29.729,253.672,7.196,234.403,4.584z M243.224,36.26c-8.683,9.854-24.681,8.479-29.392,0
				c-3.265-5.878-3.919-31.023,17.31-28.412C252.368,10.461,251.907,26.405,243.224,36.26z"/>
			<path d="M144.804,95.845c-4.026-3.61-7.767-6.996-11.094-10.047L74.712,166.89C74.712,166.89,116.011,124.752,144.804,95.845z"/>
		</g>
		<g>
			<path d="M151.401,81.945c0-2.478-2.016-4.494-4.493-4.494c-2.479,0-4.494,2.016-4.494,4.494c0,2.477,2.015,4.492,4.494,4.492
				C149.386,86.437,151.401,84.422,151.401,81.945z"/>
			<path d="M226.896,163.624L138.721,58.468c0,0-22.534,7.186-38.209-4.245C84.837,42.793,85.489,36.097,83.53,25.403
				c-1.959-10.695-5.224-18.86-15.022-22.452C58.71-0.642,48.587,7.197,43.035,5.889C37.483,4.582,23.767-0.882,20.501,4.3
				c-3.266,5.181,0.326,1.535,6.858,3.358c6.532,1.822,12.738,7.374,13.39,13.905c0.652,6.533,5.573,24.152,27.105,23.188
				c21.532-0.964,23.84,3.92,28.085,15.35c0,0,11.837-4.571,27.146,11.431S226.896,163.624,226.896,163.624z M74.712,36.914
				C54.791,50.631,41.283,24.758,44.341,17.319c3.058-7.438,14.696-17.307,25.146-9.66C79.937,15.307,85.216,29.682,74.712,36.914z
				 M153.401,81.944c0,3.579-2.914,6.492-6.493,6.492c-3.581,0-6.494-2.912-6.494-6.492c0-3.581,2.913-6.494,6.494-6.494
				C150.487,75.45,153.401,78.364,153.401,81.944z"/>
		</g>
	</g>
</g>
</svg>
