<?xml version="1.0" encoding="utf-8"?>
<!-- Generator: Adobe Illustrator 16.0.0, SVG Export Plug-In . SVG Version: 6.00 Build 0)  -->
<!DOCTYPE svg PUBLIC "-//W3C//DTD SVG 1.1//EN" "http://www.w3.org/Graphics/SVG/1.1/DTD/svg11.dtd">
<svg version="1.1" id="Layer_1" xmlns="http://www.w3.org/2000/svg" xmlns:xlink="http://www.w3.org/1999/xlink" x="0px" y="0px"
	 width="232.744px" height="164.891px" viewBox="0 0 232.744 164.891" enable-background="new 0 0 232.744 164.891"
	 xml:space="preserve">
<g>
	<g>
		<g>
			<path d="M58.177,92.233c0-1.527-0.541-2.717-1.622-3.57c-1.081-0.853-2.98-1.736-5.698-2.647
				c-2.718-0.912-4.939-1.796-6.665-2.648c-5.614-2.757-8.42-6.546-8.42-11.366c0-2.399,0.699-4.518,2.098-6.353
				c1.398-1.834,3.376-3.264,5.936-4.285c2.56-1.022,5.435-1.533,8.629-1.533c3.114,0,5.906,0.556,8.376,1.667
				c2.469,1.111,4.388,2.693,5.757,4.746c1.369,2.053,2.053,4.398,2.053,7.037H58.207c0-1.765-0.541-3.134-1.622-4.106
				c-1.081-0.972-2.543-1.458-4.389-1.458c-1.865,0-3.337,0.412-4.418,1.235c-1.081,0.824-1.622,1.87-1.622,3.139
				c0,1.111,0.595,2.118,1.785,3.021c1.19,0.902,3.283,1.835,6.279,2.797c2.995,0.962,5.455,1.999,7.378,3.109
				c4.682,2.697,7.022,6.417,7.022,11.157c0,3.789-1.428,6.765-4.285,8.928c-2.856,2.162-6.774,3.242-11.753,3.242
				c-3.511,0-6.69-0.629-9.536-1.89c-2.846-1.259-4.989-2.985-6.427-5.177s-2.157-4.716-2.157-7.572h10.474
				c0,2.32,0.6,4.031,1.8,5.132c1.2,1.102,3.149,1.651,5.847,1.651c1.726,0,3.089-0.372,4.092-1.116
				C57.676,94.628,58.177,93.582,58.177,92.233z"/>
		</g>
		<g>
			<path d="M185.868,103.748V60.426h13.953c3.828,0,7.271,0.868,10.326,2.604c3.054,1.736,5.439,4.186,7.154,7.349
				c1.717,3.164,2.584,6.709,2.604,10.638v1.993c0,3.968-0.839,7.523-2.515,10.667c-1.678,3.145-4.037,5.604-7.082,7.379
				c-3.045,1.775-6.441,2.673-10.189,2.692H185.868z M196.312,68.489v27.225h3.631c2.994,0,5.295-1.065,6.902-3.197
				c1.607-2.133,2.41-5.302,2.41-9.507v-1.875c0-4.185-0.803-7.339-2.41-9.462s-3.947-3.184-7.021-3.184H196.312z"/>
		</g>
		<g>
			<g>
				<path d="M225.255,126.599c-12.736-10.563-19.921-4.135-31.023-4.135c-11.104,0-29.065-13.063-43.762-26.778
					c-1.962-1.831-5.102-4.888-9.056-8.794l-12.187,14.532l5.565,7.65c39.842,1.306,50.292,17.635,52.252,28.739
					c1.96,11.104,8.817,27.104,28.085,24.493C234.397,159.695,237.991,137.161,225.255,126.599z M211.865,159.042
					c-21.228,2.612-20.574-22.534-17.31-28.412c4.711-8.479,20.709-9.854,29.393,0C232.631,140.485,233.093,156.429,211.865,159.042
					z"/>
				<path d="M55.437,0l58.998,81.092c3.328-3.051,7.068-6.437,11.093-10.047C96.735,42.138,55.437,0,55.437,0z"/>
			</g>
			<g>
				<path d="M127.633,80.453c-2.479,0-4.493,2.016-4.493,4.493s2.014,4.494,4.493,4.494c2.478,0,4.493-2.017,4.493-4.494
					S130.11,80.453,127.633,80.453z"/>
				<path d="M103.81,95.359c-15.309,16.002-27.146,11.43-27.146,11.43c-4.245,11.43-6.553,16.313-28.085,15.35
					c-21.532-0.965-26.453,16.654-27.105,23.187c-0.652,6.532-6.858,12.083-13.39,13.906s-10.124-1.823-6.858,3.358
					c3.266,5.183,16.982-0.282,22.534-1.59c5.552-1.307,15.675,6.531,25.473,2.939s13.063-11.757,15.022-22.452
					s1.307-17.39,16.982-28.82c15.675-11.43,38.209-4.245,38.209-4.245L207.62,3.266C207.62,3.266,119.119,79.357,103.81,95.359z
					 M50.211,159.231c-10.45,7.646-22.088-2.223-25.146-9.66c-3.058-7.438,10.45-33.312,30.371-19.595
					C65.94,137.208,60.662,151.583,50.211,159.231z M127.633,91.44c-3.581,0-6.493-2.913-6.493-6.494s2.912-6.493,6.493-6.493
					c3.58,0,6.493,2.913,6.493,6.493S131.213,91.44,127.633,91.44z"/>
			</g>
		</g>
	</g>
</g>
</svg>
